<svg xmlns="http://www.w3.org/2000/svg" width="131" height="131" viewBox="0 0 131 131">
  <g id="agriculture_black_24dp" transform="translate(0.071 0.071)">
    <g id="Group_9" data-name="Group 9">
      <rect id="Rectangle_20" data-name="Rectangle 20" width="131" height="131" transform="translate(-0.071 -0.071)" fill="none"/>
    </g>
    <g id="Group_11" data-name="Group 11" transform="translate(5.455 15.384)">
      <g id="Group_10" data-name="Group 10">
        <path id="Path_15" data-name="Path 15" d="M62.628,52.9a24.386,24.386,0,0,1,13.638,4.146V31.079A10.943,10.943,0,0,0,65.356,20.168H31.041l-5.783-5.783,7.692-7.692L29.077,2.82,9.82,22.077l3.873,3.873,7.692-7.692,5.783,5.783V36.534A10.943,10.943,0,0,1,16.257,47.445H13.311a32.619,32.619,0,0,1,8.4,21.822,36.213,36.213,0,0,1-.491,5.455h17.13A24.463,24.463,0,0,1,62.628,52.9Z" transform="translate(38.296 -2.82)" fill="#393e46"/>
        <path id="Path_16" data-name="Path 16" d="M35.094,13A19.094,19.094,0,1,0,54.188,32.094,19.115,19.115,0,0,0,35.094,13Zm0,27.277a8.183,8.183,0,1,1,8.183-8.183A8.172,8.172,0,0,1,35.094,40.277Z" transform="translate(65.831 42.536)" fill="#393e46"/>
        <path id="Path_17" data-name="Path 17" d="M8.455,17.911H35.732A10.943,10.943,0,0,0,24.822,7H8.455a5.455,5.455,0,0,0,0,10.911Z" transform="translate(7.911 15.804)" fill="#393e46"/>
        <path id="Path_18" data-name="Path 18" d="M49.171,30.84l-.982-2.564,5.074-1.909a26.837,26.837,0,0,0-12.6-13.257l-2.182,4.855-2.509-1.146,2.182-4.91A26.744,26.744,0,0,0,28.277,10a27.826,27.826,0,0,0-8.292,1.418l1.855,4.964-2.564.982-1.909-5.074A26.837,26.837,0,0,0,4.11,24.893l4.855,2.182L7.819,29.585,2.909,27.4A26.744,26.744,0,0,0,1,37.277a27.826,27.826,0,0,0,1.418,8.292l4.964-1.855.982,2.564L3.291,48.188a26.837,26.837,0,0,0,12.6,13.257l2.182-4.855,2.509,1.146L18.4,62.644a26.744,26.744,0,0,0,9.874,1.909,27.826,27.826,0,0,0,8.292-1.418l-1.855-4.964,2.564-.982,1.909,5.074a26.837,26.837,0,0,0,13.257-12.6l-4.855-2.182,1.146-2.509,4.91,2.182a26.744,26.744,0,0,0,1.909-9.874,27.826,27.826,0,0,0-1.418-8.292ZM34.551,52.388A16.362,16.362,0,1,1,43.388,31,16.375,16.375,0,0,1,34.551,52.388Z" transform="translate(-1 29.17)" fill="#393e46"/>
      </g>
    </g>
  </g>
</svg>
