<svg id="brush_black_24dp" xmlns="http://www.w3.org/2000/svg" width="120" height="120" viewBox="0 0 120 120">
  <path id="Path_19" data-name="Path 19" d="M0,0H120V120H0Z" fill="none"/>
  <path id="Path_20" data-name="Path 20" d="M27,58.01a14.98,14.98,0,0,0-15,15c0,6.55-5.8,10-10,10a25.869,25.869,0,0,0,20,10,19.994,19.994,0,0,0,20-20A14.98,14.98,0,0,0,27,58.01ZM95.55,11.16l-6.7-6.7a4.979,4.979,0,0,0-7.05,0L37,49.26,50.75,63.01l44.8-44.8A4.979,4.979,0,0,0,95.55,11.16Z" transform="translate(8 11.99)" fill="#393e46"/>
</svg>
