<svg id="local_atm_black_24dp" xmlns="http://www.w3.org/2000/svg" width="129" height="129" viewBox="0 0 129 129">
  <path id="Path_28" data-name="Path 28" d="M0,0H129V129H0Z" fill="none"/>
  <path id="Path_29" data-name="Path 29" d="M50.375,73.875h10.75V68.5H66.5a5.391,5.391,0,0,0,5.375-5.375V47A5.391,5.391,0,0,0,66.5,41.625H50.375V36.25h21.5V25.5H61.125V20.125H50.375V25.5H45a5.391,5.391,0,0,0-5.375,5.375V47A5.391,5.391,0,0,0,45,52.375H61.125V57.75h-21.5V68.5h10.75ZM98.75,4h-86a10.667,10.667,0,0,0-10.7,10.75L2,79.25A10.713,10.713,0,0,0,12.75,90h86A10.713,10.713,0,0,0,109.5,79.25V14.75A10.713,10.713,0,0,0,98.75,4Zm0,75.25h-86V14.75h86Z" transform="translate(8.75 17.5)" fill="#393e46"/>
</svg>
