<svg xmlns="http://www.w3.org/2000/svg" width="127" height="127" viewBox="0 0 127 127">
  <g id="engineering_black_24dp" transform="translate(-0.438)">
    <g id="Group_1" data-name="Group 1" transform="translate(0)">
      <rect id="Rectangle_13" data-name="Rectangle 13" width="127" height="127" transform="translate(0.438)" fill="none"/>
    </g>
    <g id="Group_3" data-name="Group 3" transform="translate(3.151 15.86)">
      <g id="Group_2" data-name="Group 2">
        <path id="Path_9" data-name="Path 9" d="M43.294,15C29.179,15,1,22.084,1,36.147V46.721H85.589V36.147C85.589,22.084,57.41,15,43.294,15Z" transform="translate(-1 48.442)" fill="#393e46"/>
        <path id="Path_10" data-name="Path 10" d="M47.793,23.3c.053-.582.106-1.163.106-1.8a9.886,9.886,0,0,0-.159-1.8l3.912-3.066a.9.9,0,0,0,.211-1.163l-3.7-6.4a.957.957,0,0,0-1.11-.423l-4.547,1.85a14.074,14.074,0,0,0-3.119-1.8L38.7,3.793A.962.962,0,0,0,37.748,3h-7.4a.872.872,0,0,0-.9.793L28.76,8.71a16.512,16.512,0,0,0-3.119,1.8l-4.6-1.85a.876.876,0,0,0-1.11.423l-3.7,6.4a.888.888,0,0,0,.211,1.163l3.912,3.066a10.265,10.265,0,0,0,0,3.6l-3.912,3.066a.9.9,0,0,0-.211,1.163l3.7,6.4a.957.957,0,0,0,1.11.423l4.6-1.85a14.074,14.074,0,0,0,3.119,1.8l.687,4.917a.872.872,0,0,0,.9.793h7.4a.872.872,0,0,0,.9-.793l.687-4.917a16.512,16.512,0,0,0,3.119-1.8l4.6,1.85a.876.876,0,0,0,1.11-.423l3.7-6.4a.888.888,0,0,0-.211-1.163ZM34.047,28.112A6.609,6.609,0,1,1,40.655,21.5,6.611,6.611,0,0,1,34.047,28.112Z" transform="translate(63.759 -3)" fill="#393e46"/>
        <path id="Path_11" data-name="Path 11" d="M40.655,18.882l-2.643-4.6a.643.643,0,0,0-.793-.317l-3.278,1.322a9.279,9.279,0,0,0-2.22-1.269l-.476-3.489A.8.8,0,0,0,30.5,10H25.217a.631.631,0,0,0-.634.582l-.476,3.489a11.5,11.5,0,0,0-2.22,1.269l-3.278-1.322a.623.623,0,0,0-.793.317l-2.643,4.6a.649.649,0,0,0,.159.846l2.8,2.168a10.267,10.267,0,0,0-.106,1.269,9.471,9.471,0,0,0,.106,1.269l-2.8,2.168a.66.66,0,0,0-.159.846l2.643,4.6a.643.643,0,0,0,.793.317l3.278-1.322a9.279,9.279,0,0,0,2.22,1.269l.476,3.489a.631.631,0,0,0,.634.582H30.5a.6.6,0,0,0,.634-.582l.476-3.489a11.5,11.5,0,0,0,2.22-1.269l3.278,1.322a.623.623,0,0,0,.793-.317l2.643-4.6a.649.649,0,0,0-.159-.846l-2.749-2.168a10.267,10.267,0,0,0,.106-1.269,9.471,9.471,0,0,0-.106-1.269l2.8-2.168A.811.811,0,0,0,40.655,18.882ZM27.861,27.605a4.388,4.388,0,1,1,4.388-4.388A4.411,4.411,0,0,1,27.861,27.605Z" transform="translate(59.372 27.008)" fill="#393e46"/>
        <path id="Path_12" data-name="Path 12" d="M6.841,30.434h45.1a2.6,2.6,0,0,0,2.591-2.591v-.106a2.6,2.6,0,0,0-2.591-2.591H50.51A21.13,21.13,0,0,0,39.936,6.908V11.93a2.643,2.643,0,0,1-5.287,0V4.74A21.626,21.626,0,0,0,29.362,4a21.626,21.626,0,0,0-5.287.74v7.19a2.643,2.643,0,0,1-5.287,0V6.908A21.13,21.13,0,0,0,8.215,25.147H6.841A2.6,2.6,0,0,0,4.25,27.738V27.9A2.584,2.584,0,0,0,6.841,30.434Z" transform="translate(12.932 1.287)" fill="#393e46"/>
        <path id="Path_13" data-name="Path 13" d="M25.547,25.86A21.146,21.146,0,0,0,45.954,10H5.14A21.146,21.146,0,0,0,25.547,25.86Z" transform="translate(16.747 27.008)" fill="#393e46"/>
      </g>
    </g>
  </g>
</svg>
