<svg id="language_black_24dp" xmlns="http://www.w3.org/2000/svg" width="118.776" height="118.776" viewBox="0 0 118.776 118.776">
  <path id="Path_23" data-name="Path 23" d="M0,0H118.776V118.776H0Z" fill="none"/>
  <path id="Path_24" data-name="Path 24" d="M51.441,2a49.49,49.49,0,1,0,49.54,49.49A49.466,49.466,0,0,0,51.441,2Zm34.3,29.694h-14.6a77.447,77.447,0,0,0-6.83-17.618A39.739,39.739,0,0,1,85.737,31.694ZM51.49,12.1a69.715,69.715,0,0,1,9.453,19.6H42.038A69.715,69.715,0,0,1,51.49,12.1ZM13.185,61.388a40.789,40.789,0,0,1-1.287-9.9,40.789,40.789,0,0,1,1.287-9.9H29.912a81.735,81.735,0,0,0-.693,9.9,81.735,81.735,0,0,0,.693,9.9Zm4.058,9.9h14.6A77.447,77.447,0,0,0,38.672,88.9,39.527,39.527,0,0,1,17.243,71.286Zm14.6-39.592h-14.6A39.527,39.527,0,0,1,38.672,14.076a77.448,77.448,0,0,0-6.83,17.618ZM51.49,90.884a69.716,69.716,0,0,1-9.453-19.6H60.943A69.716,69.716,0,0,1,51.49,90.884Zm11.581-29.5H39.909a72.814,72.814,0,0,1-.792-9.9,72.181,72.181,0,0,1,.792-9.9H63.071a72.182,72.182,0,0,1,.792,9.9A72.814,72.814,0,0,1,63.071,61.388ZM64.308,88.9a77.447,77.447,0,0,0,6.83-17.618h14.6A39.739,39.739,0,0,1,64.308,88.9Zm8.76-27.517a81.735,81.735,0,0,0,.693-9.9,81.735,81.735,0,0,0-.693-9.9H89.8a40.789,40.789,0,0,1,1.287,9.9,40.789,40.789,0,0,1-1.287,9.9Z" transform="translate(7.898 7.898)" fill="#393e46"/>
</svg>
