<svg xmlns="http://www.w3.org/2000/svg" width="5.85" height="10.761" viewBox="0 0 5.85 10.761"><g transform="translate(296.692 116.359) rotate(180)"><path d="M297.155,111.434a.465.465,0,0,1-.326-.135l-4.925-4.925a.462.462,0,0,1,.653-.653l4.925,4.925a.459.459,0,0,1,0,.653A.465.465,0,0,1,297.155,111.434Z" transform="translate(-0.925 0)"/><path d="M291.305,483.8a.465.465,0,0,1-.326-.135.459.459,0,0,1,0-.653l4.925-4.925a.462.462,0,0,1,.653.652l-4.925,4.925A.465.465,0,0,1,291.305,483.8Z" transform="translate(0 -367.439)"/></g></svg>